<?xml version="1.0" encoding="UTF-8" standalone="no"?>
<!-- Created with Inkscape (http://www.inkscape.org/) -->

<svg
   width="256"
   height="140"
   viewBox="0 0 67.733332 37.041668"
   version="1.1"
   id="svg5"
   inkscape:version="1.1.1 (eb90963e84, 2021-10-02)"
   sodipodi:docname="MigyLogo.svg"
   xmlns:inkscape="http://www.inkscape.org/namespaces/inkscape"
   xmlns:sodipodi="http://sodipodi.sourceforge.net/DTD/sodipodi-0.dtd"
   xmlns="http://www.w3.org/2000/svg"
   xmlns:svg="http://www.w3.org/2000/svg">
  <sodipodi:namedview
     id="namedview7"
     pagecolor="#ffffff"
     bordercolor="#666666"
     borderopacity="1.0"
     inkscape:pageshadow="2"
     inkscape:pageopacity="0.0"
     inkscape:pagecheckerboard="0"
     inkscape:document-units="mm"
     showgrid="false"
     units="px"
     width="256px"
     height="140px"
     inkscape:zoom="1.4681257"
     inkscape:cx="269.3911"
     inkscape:cy="219.32727"
     inkscape:window-width="1920"
     inkscape:window-height="1010"
     inkscape:window-x="0"
     inkscape:window-y="34"
     inkscape:window-maximized="1"
     inkscape:current-layer="layer1" />
  <defs
     id="defs2" />
  <g
     inkscape:label="Слой 1"
     inkscape:groupmode="layer"
     id="layer1">
    <ellipse
       style="fill:#808000;stroke-width:0.152037"
       id="path44694"
       cx="36.054855"
       cy="14.775983"
       rx="31.455868"
       ry="17.301208"
       transform="rotate(6.3031493)" />
    <g
       id="g44870">
      <path
         d="m 20.701258,22.272373 q -0.46356,-1.668816 -0.950298,-3.198564 -0.486738,-1.529748 -0.950298,-2.874072 -0.440382,-1.367501 -0.857586,-2.480045 -0.417204,-1.112544 -0.764874,-1.946952 -0.09271,1.321146 -0.162246,2.920428 -0.04636,1.576103 -0.11589,3.244919 -0.04636,1.668816 -0.09271,3.36081 -0.02318,1.668816 -0.04636,3.198564 H 14.76769 q 0.06953,-2.08602 0.139068,-4.195218 0.06953,-2.132376 0.162246,-4.172039 0.11589,-2.062842 0.23178,-4.009794 0.139068,-1.946952 0.301314,-3.6853023 h 2.062842 q 0.417204,0.9966539 0.950298,2.3873343 0.533094,1.367502 1.066188,2.874072 0.556272,1.50657 1.066188,3.013139 0.509916,1.50657 0.880764,2.758182 0.370848,-1.251612 0.857586,-2.758182 0.486738,-1.506569 1.019832,-3.013139 0.533094,-1.50657 1.04301,-2.874072 0.533094,-1.3906804 0.950298,-2.3873343 h 2.062842 q 0.162246,1.7383503 0.278136,3.6853023 0.139068,1.946952 0.23178,4.009794 0.11589,2.039663 0.185424,4.172039 0.06953,2.109198 0.139068,4.195218 h -1.993308 q -0.04636,-1.529748 -0.09271,-3.221742 -0.02318,-1.691994 -0.09271,-3.383988 -0.04636,-1.715172 -0.11589,-3.314453 -0.06953,-1.62246 -0.162246,-2.966784 -0.208602,0.57945 -0.533094,1.460214 -0.301314,0.857586 -0.648984,1.877418 -0.324492,1.019832 -0.69534,2.109197 -0.34767,1.066188 -0.672162,2.062842 -0.301314,0.996654 -0.556272,1.831062 -0.23178,0.81123 -0.370848,1.321146 z"
         style="font-size:23.178px;line-height:1.25;font-family:'Ubuntu Condensed';-inkscape-font-specification:'Ubuntu Condensed, ';fill:#ffffff;stroke-width:0.579449"
         id="path44817" />
      <path
         d="M 33.796823,24.497461 H 31.803515 V 12.329012 h 1.993308 z M 32.800169,10.173458 q -0.533094,0 -0.92712,-0.3476704 -0.370848,-0.370848 -0.370848,-0.9734759 0,-0.602628 0.370848,-0.950298 0.394026,-0.370848 0.92712,-0.370848 0.533094,0 0.903942,0.370848 0.394026,0.34767 0.394026,0.950298 0,0.6026279 -0.394026,0.9734759 -0.370848,0.3476704 -0.903942,0.3476704 z"
         style="font-size:23.178px;line-height:1.25;font-family:'Ubuntu Condensed';-inkscape-font-specification:'Ubuntu Condensed, ';fill:#ffffff;stroke-width:0.579449"
         id="path44819" />
      <path
         d="m 44.644096,24.149791 q 0,1.297968 -0.34767,2.178732 -0.324492,0.903942 -0.903942,1.460214 -0.57945,0.556272 -1.367502,0.81123 -0.764874,0.254958 -1.645638,0.254958 -0.741696,0 -1.483392,-0.162246 -0.741696,-0.162246 -1.367502,-0.486738 l 0.417204,-1.668816 q 0.417204,0.23178 1.019832,0.417204 0.602628,0.185424 1.251612,0.185424 1.135722,0 1.784706,-0.648984 0.648984,-0.648984 0.648984,-2.225088 v -0.57945 q -0.370848,0.162246 -0.788052,0.278136 -0.417204,0.09271 -0.950298,0.09271 -2.178732,0 -3.198564,-1.483392 -0.996654,-1.50657 -0.996654,-4.241574 0,-1.460214 0.254958,-2.619113 0.278136,-1.182078 0.834408,-1.993308 0.57945,-0.834408 1.483392,-1.251612 0.903942,-0.440382 2.20191,-0.440382 0.857586,0 1.668816,0.185424 0.834408,0.162246 1.483392,0.440382 z M 42.650788,13.951472 q -0.324492,-0.09271 -0.625806,-0.11589 -0.301314,-0.04636 -0.556272,-0.04636 -1.39068,0 -2.039664,1.066188 -0.625806,1.066188 -0.625806,3.476699 0,2.178732 0.625806,3.082674 0.625806,0.880764 1.784706,0.880764 0.394026,0 0.741696,-0.09271 0.370848,-0.09271 0.69534,-0.254958 z"
         style="font-size:23.178px;line-height:1.25;font-family:'Ubuntu Condensed';-inkscape-font-specification:'Ubuntu Condensed, ';fill:#ffffff;stroke-width:0.579449"
         id="path44821" />
      <path
         d="m 51.041202,21.971059 q 0.672162,-2.3178 1.228434,-4.658778 0.556272,-2.340977 1.066188,-4.983269 h 1.97013 q -0.34767,1.691994 -0.764874,3.337632 -0.394026,1.645637 -0.834408,3.175385 -0.417204,1.529748 -0.857586,2.89725 -0.417204,1.344324 -0.788052,2.456868 -0.440382,1.297968 -0.857586,2.178732 -0.394026,0.903942 -0.880764,1.437036 -0.46356,0.556272 -1.019832,0.788052 -0.556271,0.254958 -1.321145,0.254958 -0.417204,0 -0.834408,-0.11589 -0.417204,-0.09271 -0.69534,-0.208602 l 0.370848,-1.62246 q 0.602628,0.254958 1.135722,0.254958 0.672162,0 1.089365,-0.486738 0.417204,-0.486738 0.81123,-1.460214 l 0.23178,-0.57945 q -0.440382,-1.205256 -0.903942,-2.66547 -0.440381,-1.483392 -0.880763,-3.082674 -0.417204,-1.599282 -0.81123,-3.268097 -0.394026,-1.691994 -0.718518,-3.291276 h 2.109198 q 0.185423,1.089366 0.440381,2.387334 0.254958,1.297968 0.533094,2.595935 0.301314,1.297968 0.602628,2.526402 0.301314,1.205256 0.57945,2.132376 z"
         style="font-size:23.178px;line-height:1.25;font-family:'Ubuntu Condensed';-inkscape-font-specification:'Ubuntu Condensed, ';fill:#ffffff;stroke-width:0.579449"
         id="path44823" />
    </g>
  </g>
</svg>
